<?xml version="1.0" encoding="UTF-8"?>
<svg id="Layer_2" data-name="Layer 2" xmlns="http://www.w3.org/2000/svg" viewBox="0 0 587.31 64.37">
  <defs>
    <style>
      .cls-1 {
        fill: #424a60;
      }

      .cls-2 {
        fill: #e1e9ff;
      }

      .cls-3 {
        fill: #1e222b;
      }

      .cls-4 {
        fill: #a9baff;
      }
    </style>
  </defs>
  <g id="Layer_2-2" data-name="Layer 2">
    <g>
      <g id="_4" data-name="4">
        <path class="cls-3" d="M24.33,36.7l-7.81-1.66c-3.13-.68-4.7-3.05-4.7-7.1,0-4.69,1.9-7.03,5.69-7.03h12.88v-1.5l-1.73-1.65h-10.71c-5.95,0-8.92,3.5-8.92,10.49,0,5.74,2.58,9.16,7.74,10.26l7.8,1.66c2.98.63,4.46,3.31,4.46,8.05s-1.88,7.02-5.63,7.02h-14.37v1.5l1.74,1.66h12.13c5.99,0,8.98-3.53,8.98-10.58,0-6.36-2.52-10.07-7.55-11.12Z"/>
        <path class="cls-3" d="M91.02,39.54v-10.5c0-7.52-2.94-11.28-8.8-11.28h-8.05c-5.9,0-8.85,3.76-8.85,11.28v18.07c0,7.53,2.95,11.29,8.85,11.29h13.87l1.74-1.66v-1.5h-15.92c-3.84,0-5.76-2.45-5.76-7.34v-8.36h22.92ZM68.1,28.25c0-4.89,1.92-7.34,5.76-7.34h8.61c3.84,0,5.76,2.45,5.76,7.34v8.13h-20.13v-8.13Z"/>
        <path class="cls-3" d="M142.72,17.76h-14.12V0h-2.79v35.57h2.79v-14.66h14.37c3.84,0,5.76,2.45,5.76,7.34v7.32h2.78v-6.53c0-7.52-2.93-11.28-8.79-11.28ZM148.73,41.45v6.45c0,4.89-1.92,7.34-5.76,7.34h-14.37v-13.79h-2.79v16.95h16.91c5.86,0,8.79-3.76,8.79-11.29v-5.66h-2.78Z"/>
        <path class="cls-3" d="M200.49,17.76h-11.33l-1.73,1.65v1.5h13.31c3.84,0,5.76,2.45,5.76,7.34v7.1h-13.01c-5.94,0-8.91,3.85-8.91,11.53s2.97,11.52,8.91,11.52h15.79v-29.36c0-7.52-2.93-11.28-8.79-11.28ZM206.5,55.24h-13.38c-3.84,0-5.76-2.45-5.76-7.34v-2.05c0-4.89,1.92-7.34,5.76-7.34h13.38v16.73Z"/>
        <path class="cls-3" d="M244.76,51.61v6.79h4.09v-6.79h-4.09Z"/>
        <path class="cls-3" d="M306.93,41.45v13.79h-14.36c-3.84,0-5.76-2.45-5.76-7.34v-6.45h-2.79v5.66c0,7.53,2.95,11.29,8.86,11.29h16.84v-16.95h-2.79ZM306.93,0v17.76h-14.05c-5.91,0-8.86,3.76-8.86,11.28v6.53h2.79v-7.32c0-4.89,1.92-7.34,5.76-7.34h14.36v14.66h2.79V0h-2.79Z"/>
        <path class="cls-3" d="M370.22,39.54v-10.5c0-7.52-2.93-11.28-8.8-11.28h-8.05c-5.9,0-8.85,3.76-8.85,11.28v18.07c0,7.53,2.95,11.29,8.85,11.29h13.88l1.73-1.66v-1.5h-15.91c-3.84,0-5.76-2.45-5.76-7.34v-8.36h22.91ZM347.31,28.25c0-4.89,1.92-7.34,5.76-7.34h8.6c3.84,0,5.76,2.45,5.76,7.34v8.13h-20.12v-8.13Z"/>
        <path class="cls-3" d="M421.92,17.76h-14.12V0h-2.78v35.57h2.78v-14.66h14.37c3.84,0,5.76,2.45,5.76,7.34v7.32h2.78v-6.53c0-7.52-2.93-11.28-8.79-11.28ZM427.93,41.45v6.45c0,4.89-1.92,7.34-5.76,7.34h-14.37v-13.79h-2.78v16.95h16.9c5.86,0,8.79-3.76,8.79-11.29v-5.66h-2.78Z"/>
        <path class="cls-3" d="M465.2,4.18v5.45h3.41v-5.45h-3.41ZM465.51,17.76v17.81h2.79v-17.81h-2.79ZM465.51,41.45v16.95h2.79v-16.95h-2.79Z"/>
        <path class="cls-3" d="M517.78,17.76h-11.34l-1.73,1.65v1.5h13.31c3.84,0,5.76,2.45,5.76,7.34v7.1h-13c-5.95,0-8.92,3.85-8.92,11.53s2.97,11.52,8.92,11.52h15.79v-29.36c0-7.52-2.93-11.28-8.79-11.28ZM523.78,55.24h-13.37c-3.84,0-5.76-2.45-5.76-7.34v-2.05c0-4.89,1.92-7.34,5.76-7.34h13.37v16.73Z"/>
        <path class="cls-3" d="M584.53,58.4h2.78v-16.95h-2.78v16.95ZM578.52,17.76h-16.9v17.81h2.78v-14.66h14.37c3.84,0,5.76,2.45,5.76,7.34v7.32h2.78v-6.53c0-7.52-2.93-11.28-8.79-11.28ZM561.62,58.4h2.78v-16.95h-2.78v16.95Z"/>
      </g>
      <g id="_3" data-name="3">
        <path class="cls-1" d="M21.36,38.81l-7.81-1.66c-3.13-.68-4.7-3.05-4.7-7.1,0-4.69,1.9-7.03,5.69-7.03h12.88v-1.5l-1.73-1.65h-10.71c-5.95,0-8.92,3.5-8.92,10.49,0,5.74,2.58,9.16,7.74,10.26l7.8,1.66c2.98.63,4.46,3.31,4.46,8.05s-1.88,7.02-5.63,7.02H6.06v1.5l1.74,1.66h12.13c5.99,0,8.98-3.53,8.98-10.58,0-6.36-2.52-10.07-7.55-11.12Z"/>
        <path class="cls-1" d="M88.05,41.65v-10.5c0-7.52-2.94-11.28-8.8-11.28h-8.05c-5.9,0-8.85,3.76-8.85,11.28v18.07c0,7.53,2.95,11.29,8.85,11.29h13.87l1.74-1.66v-1.5h-15.92c-3.84,0-5.76-2.45-5.76-7.34v-8.36h22.92ZM65.13,30.36c0-4.89,1.92-7.34,5.76-7.34h8.61c3.84,0,5.76,2.45,5.76,7.34v8.13h-20.13v-8.13Z"/>
        <path class="cls-1" d="M139.75,19.87h-14.12V2.11h-2.79v35.57h2.79v-14.66h14.37c3.84,0,5.76,2.45,5.76,7.34v7.32h2.78v-6.53c0-7.52-2.93-11.28-8.79-11.28ZM145.76,43.56v6.45c0,4.89-1.92,7.34-5.76,7.34h-14.37v-13.79h-2.79v16.95h16.91c5.86,0,8.79-3.76,8.79-11.29v-5.66h-2.78Z"/>
        <path class="cls-1" d="M197.52,19.87h-11.33l-1.73,1.65v1.5h13.31c3.84,0,5.76,2.45,5.76,7.34v7.1h-13.01c-5.94,0-8.91,3.85-8.91,11.53s2.97,11.52,8.91,11.52h15.79v-29.36c0-7.52-2.93-11.28-8.79-11.28ZM203.53,57.35h-13.38c-3.84,0-5.76-2.45-5.76-7.34v-2.05c0-4.89,1.92-7.34,5.76-7.34h13.38v16.73Z"/>
        <path class="cls-1" d="M241.79,53.72v6.79h4.09v-6.79h-4.09Z"/>
        <path class="cls-1" d="M303.96,43.56v13.79h-14.36c-3.84,0-5.76-2.45-5.76-7.34v-6.45h-2.79v5.66c0,7.53,2.95,11.29,8.86,11.29h16.84v-16.95h-2.79ZM303.96,2.11v17.76h-14.05c-5.91,0-8.86,3.76-8.86,11.28v6.53h2.79v-7.32c0-4.89,1.92-7.34,5.76-7.34h14.36v14.66h2.79V2.11h-2.79Z"/>
        <path class="cls-1" d="M367.25,41.65v-10.5c0-7.52-2.93-11.28-8.8-11.28h-8.05c-5.9,0-8.85,3.76-8.85,11.28v18.07c0,7.53,2.95,11.29,8.85,11.29h13.88l1.73-1.66v-1.5h-15.91c-3.84,0-5.76-2.45-5.76-7.34v-8.36h22.91ZM344.34,30.36c0-4.89,1.92-7.34,5.76-7.34h8.6c3.84,0,5.76,2.45,5.76,7.34v8.13h-20.12v-8.13Z"/>
        <path class="cls-1" d="M418.95,19.87h-14.12V2.11h-2.78v35.57h2.78v-14.66h14.37c3.84,0,5.76,2.45,5.76,7.34v7.32h2.78v-6.53c0-7.52-2.93-11.28-8.79-11.28ZM424.96,43.56v6.45c0,4.89-1.92,7.34-5.76,7.34h-14.37v-13.79h-2.78v16.95h16.9c5.86,0,8.79-3.76,8.79-11.29v-5.66h-2.78Z"/>
        <path class="cls-1" d="M462.23,6.29v5.45h3.41v-5.45h-3.41ZM462.54,19.87v17.81h2.79v-17.81h-2.79ZM462.54,43.56v16.95h2.79v-16.95h-2.79Z"/>
        <path class="cls-1" d="M514.81,19.87h-11.34l-1.73,1.65v1.5h13.31c3.84,0,5.76,2.45,5.76,7.34v7.1h-13c-5.95,0-8.92,3.85-8.92,11.53s2.97,11.52,8.92,11.52h15.79v-29.36c0-7.52-2.93-11.28-8.79-11.28ZM520.81,57.35h-13.37c-3.84,0-5.76-2.45-5.76-7.34v-2.05c0-4.89,1.92-7.34,5.76-7.34h13.37v16.73Z"/>
        <path class="cls-1" d="M581.56,60.51h2.78v-16.95h-2.78v16.95ZM575.55,19.87h-16.9v17.81h2.78v-14.66h14.37c3.84,0,5.76,2.45,5.76,7.34v7.32h2.78v-6.53c0-7.52-2.93-11.28-8.79-11.28ZM558.65,60.51h2.78v-16.95h-2.78v16.95Z"/>
      </g>
      <g id="_2" data-name="2">
        <path class="cls-4" d="M18.35,40.98l-7.81-1.66c-3.13-.68-4.7-3.05-4.7-7.1,0-4.69,1.9-7.03,5.69-7.03h12.88v-1.5l-1.73-1.65h-10.71c-5.95,0-8.92,3.5-8.92,10.49,0,5.74,2.58,9.16,7.74,10.26l7.8,1.66c2.98.63,4.46,3.31,4.46,8.05s-1.88,7.02-5.63,7.02H3.05v1.5l1.74,1.66h12.13c5.99,0,8.98-3.53,8.98-10.58,0-6.36-2.52-10.07-7.55-11.12Z"/>
        <path class="cls-4" d="M85.04,43.82v-10.5c0-7.52-2.94-11.28-8.8-11.28h-8.05c-5.9,0-8.85,3.76-8.85,11.28v18.07c0,7.53,2.95,11.29,8.85,11.29h13.87l1.74-1.66v-1.5h-15.92c-3.84,0-5.76-2.45-5.76-7.34v-8.36h22.92ZM62.12,32.53c0-4.89,1.92-7.34,5.76-7.34h8.61c3.84,0,5.76,2.45,5.76,7.34v8.13h-20.13v-8.13Z"/>
        <path class="cls-4" d="M136.74,22.04h-14.12V4.28h-2.79v35.57h2.79v-14.66h14.37c3.84,0,5.76,2.45,5.76,7.34v7.32h2.78v-6.53c0-7.52-2.93-11.28-8.79-11.28ZM142.75,45.73v6.45c0,4.89-1.92,7.34-5.76,7.34h-14.37v-13.79h-2.79v16.95h16.91c5.86,0,8.79-3.76,8.79-11.29v-5.66h-2.78Z"/>
        <path class="cls-4" d="M194.51,22.04h-11.33l-1.73,1.65v1.5h13.31c3.84,0,5.76,2.45,5.76,7.34v7.1h-13.01c-5.94,0-8.91,3.85-8.91,11.53s2.97,11.52,8.91,11.52h15.79v-29.36c0-7.52-2.93-11.28-8.79-11.28ZM200.52,59.52h-13.38c-3.84,0-5.76-2.45-5.76-7.34v-2.05c0-4.89,1.92-7.34,5.76-7.34h13.38v16.73Z"/>
        <path class="cls-4" d="M238.78,55.89v6.79h4.09v-6.79h-4.09Z"/>
        <path class="cls-4" d="M300.95,45.73v13.79h-14.36c-3.84,0-5.76-2.45-5.76-7.34v-6.45h-2.79v5.66c0,7.53,2.95,11.29,8.86,11.29h16.84v-16.95h-2.79ZM300.95,4.28v17.76h-14.05c-5.91,0-8.86,3.76-8.86,11.28v6.53h2.79v-7.32c0-4.89,1.92-7.34,5.76-7.34h14.36v14.66h2.79V4.28h-2.79Z"/>
        <path class="cls-4" d="M364.24,43.82v-10.5c0-7.52-2.93-11.28-8.8-11.28h-8.05c-5.9,0-8.85,3.76-8.85,11.28v18.07c0,7.53,2.95,11.29,8.85,11.29h13.88l1.73-1.66v-1.5h-15.91c-3.84,0-5.76-2.45-5.76-7.34v-8.36h22.91ZM341.33,32.53c0-4.89,1.92-7.34,5.76-7.34h8.6c3.84,0,5.76,2.45,5.76,7.34v8.13h-20.12v-8.13Z"/>
        <path class="cls-4" d="M415.94,22.04h-14.12V4.28h-2.78v35.57h2.78v-14.66h14.37c3.84,0,5.76,2.45,5.76,7.34v7.32h2.78v-6.53c0-7.52-2.93-11.28-8.79-11.28ZM421.95,45.73v6.45c0,4.89-1.92,7.34-5.76,7.34h-14.37v-13.79h-2.78v16.95h16.9c5.86,0,8.79-3.76,8.79-11.29v-5.66h-2.78Z"/>
        <path class="cls-4" d="M459.22,8.46v5.45h3.41v-5.45h-3.41ZM459.53,22.04v17.81h2.79v-17.81h-2.79ZM459.53,45.73v16.95h2.79v-16.95h-2.79Z"/>
        <path class="cls-4" d="M511.8,22.04h-11.34l-1.73,1.65v1.5h13.31c3.84,0,5.76,2.45,5.76,7.34v7.1h-13c-5.95,0-8.92,3.85-8.92,11.53s2.97,11.52,8.92,11.52h15.79v-29.36c0-7.52-2.93-11.28-8.79-11.28ZM517.8,59.52h-13.37c-3.84,0-5.76-2.45-5.76-7.34v-2.05c0-4.89,1.92-7.34,5.76-7.34h13.37v16.73Z"/>
        <path class="cls-4" d="M578.55,62.67h2.78v-16.95h-2.78v16.95ZM572.54,22.04h-16.9v17.81h2.78v-14.66h14.37c3.84,0,5.76,2.45,5.76,7.34v7.32h2.78v-6.53c0-7.52-2.93-11.28-8.79-11.28ZM555.64,62.67h2.78v-16.95h-2.78v16.95Z"/>
      </g>
      <g id="_1" data-name="1">
        <path class="cls-2" d="M15.3,42.67l-7.81-1.66c-3.13-.68-4.7-3.05-4.7-7.1,0-4.69,1.9-7.03,5.69-7.03h12.88v-1.5l-1.73-1.65h-10.71c-5.95,0-8.92,3.5-8.92,10.49,0,5.74,2.58,9.16,7.74,10.26l7.8,1.66c2.98.63,4.46,3.31,4.46,8.05s-1.88,7.02-5.63,7.02H0v1.5l1.74,1.66h12.13c5.99,0,8.98-3.53,8.98-10.58,0-6.36-2.52-10.07-7.55-11.12Z"/>
        <path class="cls-2" d="M81.99,45.51v-10.5c0-7.52-2.94-11.28-8.8-11.28h-8.05c-5.9,0-8.85,3.76-8.85,11.28v18.07c0,7.53,2.95,11.29,8.85,11.29h13.87l1.74-1.66v-1.5h-15.92c-3.84,0-5.76-2.45-5.76-7.34v-8.36h22.92ZM59.07,34.22c0-4.89,1.92-7.34,5.76-7.34h8.61c3.84,0,5.76,2.45,5.76,7.34v8.13h-20.13v-8.13Z"/>
        <path class="cls-2" d="M133.69,23.73h-14.12V5.97h-2.79v35.57h2.79v-14.66h14.37c3.84,0,5.76,2.45,5.76,7.34v7.32h2.78v-6.53c0-7.52-2.93-11.28-8.79-11.28ZM139.7,47.42v6.45c0,4.89-1.92,7.34-5.76,7.34h-14.37v-13.79h-2.79v16.95h16.91c5.86,0,8.79-3.76,8.79-11.29v-5.66h-2.78Z"/>
        <path class="cls-2" d="M191.46,23.73h-11.33l-1.73,1.65v1.5h13.31c3.84,0,5.76,2.45,5.76,7.34v7.1h-13.01c-5.94,0-8.91,3.85-8.91,11.53s2.97,11.52,8.91,11.52h15.79v-29.36c0-7.52-2.93-11.28-8.79-11.28ZM197.47,61.21h-13.38c-3.84,0-5.76-2.45-5.76-7.34v-2.05c0-4.89,1.92-7.34,5.76-7.34h13.38v16.73Z"/>
        <path class="cls-2" d="M235.73,57.58v6.79h4.09v-6.79h-4.09Z"/>
        <path class="cls-2" d="M297.9,47.42v13.79h-14.36c-3.84,0-5.76-2.45-5.76-7.34v-6.45h-2.79v5.66c0,7.53,2.95,11.29,8.86,11.29h16.84v-16.95h-2.79ZM297.9,5.97v17.76h-14.05c-5.91,0-8.86,3.76-8.86,11.28v6.53h2.79v-7.32c0-4.89,1.92-7.34,5.76-7.34h14.36v14.66h2.79V5.97h-2.79Z"/>
        <path class="cls-2" d="M361.19,45.51v-10.5c0-7.52-2.93-11.28-8.8-11.28h-8.05c-5.9,0-8.85,3.76-8.85,11.28v18.07c0,7.53,2.95,11.29,8.85,11.29h13.88l1.73-1.66v-1.5h-15.91c-3.84,0-5.76-2.45-5.76-7.34v-8.36h22.91ZM338.28,34.22c0-4.89,1.92-7.34,5.76-7.34h8.6c3.84,0,5.76,2.45,5.76,7.34v8.13h-20.12v-8.13Z"/>
        <path class="cls-2" d="M412.89,23.73h-14.12V5.97h-2.78v35.57h2.78v-14.66h14.37c3.84,0,5.76,2.45,5.76,7.34v7.32h2.78v-6.53c0-7.52-2.93-11.28-8.79-11.28ZM418.9,47.42v6.45c0,4.89-1.92,7.34-5.76,7.34h-14.37v-13.79h-2.78v16.95h16.9c5.86,0,8.79-3.76,8.79-11.29v-5.66h-2.78Z"/>
        <path class="cls-2" d="M456.17,10.15v5.45h3.41v-5.45h-3.41ZM456.48,23.73v17.81h2.79v-17.81h-2.79ZM456.48,47.42v16.95h2.79v-16.95h-2.79Z"/>
        <path class="cls-2" d="M508.75,23.73h-11.34l-1.73,1.65v1.5h13.31c3.84,0,5.76,2.45,5.76,7.34v7.1h-13c-5.95,0-8.92,3.85-8.92,11.53s2.97,11.52,8.92,11.52h15.79v-29.36c0-7.52-2.93-11.28-8.79-11.28ZM514.75,61.21h-13.37c-3.84,0-5.76-2.45-5.76-7.34v-2.05c0-4.89,1.92-7.34,5.76-7.34h13.37v16.73Z"/>
        <path class="cls-2" d="M575.5,64.37h2.78v-16.95h-2.78v16.95ZM569.49,23.73h-16.9v17.81h2.78v-14.66h14.37c3.84,0,5.76,2.45,5.76,7.34v7.32h2.78v-6.53c0-7.52-2.93-11.28-8.79-11.28ZM552.59,64.37h2.78v-16.95h-2.78v16.95Z"/>
      </g>
    </g>
  </g>
</svg>