<?xml version="1.0" encoding="UTF-8"?>
<svg id="Layer_2" data-name="Layer 2" xmlns="http://www.w3.org/2000/svg" viewBox="0 0 578.28 58.4">
  <defs>
    <style>
      .cls-1 {
        fill: #e1e9ff;
      }
    </style>
  </defs>
  <g id="Layer_2-2" data-name="Layer 2">
    <g id="_1" data-name="1">
      <path class="cls-1" d="M15.3,36.7l-7.81-1.66c-3.13-.68-4.7-3.05-4.7-7.1,0-4.69,1.9-7.03,5.69-7.03h12.88v-1.5l-1.73-1.65h-10.71c-5.95,0-8.92,3.5-8.92,10.49,0,5.74,2.58,9.16,7.74,10.26l7.8,1.66c2.98.63,4.46,3.31,4.46,8.05s-1.88,7.02-5.63,7.02H0v1.5l1.74,1.66h12.13c5.99,0,8.98-3.53,8.98-10.58,0-6.36-2.52-10.07-7.55-11.12Z"/>
      <path class="cls-1" d="M81.99,39.54v-10.5c0-7.52-2.94-11.28-8.8-11.28h-8.05c-5.9,0-8.85,3.76-8.85,11.28v18.07c0,7.53,2.95,11.29,8.85,11.29h13.87l1.74-1.66v-1.5h-15.92c-3.84,0-5.76-2.45-5.76-7.34v-8.36h22.92ZM59.07,28.25c0-4.89,1.92-7.34,5.76-7.34h8.61c3.84,0,5.76,2.45,5.76,7.34v8.13h-20.13v-8.13Z"/>
      <path class="cls-1" d="M133.69,17.76h-14.12V0h-2.79v35.57h2.79v-14.66h14.37c3.84,0,5.76,2.45,5.76,7.34v7.32h2.78v-6.53c0-7.52-2.93-11.28-8.79-11.28ZM139.7,41.45v6.45c0,4.89-1.92,7.34-5.76,7.34h-14.37v-13.79h-2.79v16.95h16.91c5.86,0,8.79-3.76,8.79-11.29v-5.66h-2.78Z"/>
      <path class="cls-1" d="M191.46,17.76h-11.33l-1.73,1.65v1.5h13.31c3.84,0,5.76,2.45,5.76,7.34v7.1h-13.01c-5.94,0-8.91,3.85-8.91,11.53s2.97,11.52,8.91,11.52h15.79v-29.36c0-7.52-2.93-11.28-8.79-11.28ZM197.47,55.24h-13.38c-3.84,0-5.76-2.45-5.76-7.34v-2.05c0-4.89,1.92-7.34,5.76-7.34h13.38v16.73Z"/>
      <path class="cls-1" d="M235.73,51.61v6.79h4.09v-6.79h-4.09Z"/>
      <path class="cls-1" d="M297.9,41.45v13.79h-14.36c-3.84,0-5.76-2.45-5.76-7.34v-6.45h-2.79v5.66c0,7.53,2.95,11.29,8.86,11.29h16.84v-16.95h-2.79ZM297.9,0v17.76h-14.05c-5.91,0-8.86,3.76-8.86,11.28v6.53h2.79v-7.32c0-4.89,1.92-7.34,5.76-7.34h14.36v14.66h2.79V0h-2.79Z"/>
      <path class="cls-1" d="M361.19,39.54v-10.5c0-7.52-2.93-11.28-8.8-11.28h-8.05c-5.9,0-8.85,3.76-8.85,11.28v18.07c0,7.53,2.95,11.29,8.85,11.29h13.88l1.73-1.66v-1.5h-15.91c-3.84,0-5.76-2.45-5.76-7.34v-8.36h22.91ZM338.28,28.25c0-4.89,1.92-7.34,5.76-7.34h8.6c3.84,0,5.76,2.45,5.76,7.34v8.13h-20.12v-8.13Z"/>
      <path class="cls-1" d="M412.89,17.76h-14.12V0h-2.78v35.57h2.78v-14.66h14.37c3.84,0,5.76,2.45,5.76,7.34v7.32h2.78v-6.53c0-7.52-2.93-11.28-8.79-11.28ZM418.9,41.45v6.45c0,4.89-1.92,7.34-5.76,7.34h-14.37v-13.79h-2.78v16.95h16.9c5.86,0,8.79-3.76,8.79-11.29v-5.66h-2.78Z"/>
      <path class="cls-1" d="M456.17,4.18v5.45h3.41v-5.45h-3.41ZM456.48,17.76v17.81h2.79v-17.81h-2.79ZM456.48,41.45v16.95h2.79v-16.95h-2.79Z"/>
      <path class="cls-1" d="M508.75,17.76h-11.34l-1.73,1.65v1.5h13.31c3.84,0,5.76,2.45,5.76,7.34v7.1h-13c-5.95,0-8.92,3.85-8.92,11.53s2.97,11.52,8.92,11.52h15.79v-29.36c0-7.52-2.93-11.28-8.79-11.28ZM514.75,55.24h-13.37c-3.84,0-5.76-2.45-5.76-7.34v-2.05c0-4.89,1.92-7.34,5.76-7.34h13.37v16.73Z"/>
      <path class="cls-1" d="M575.5,58.4h2.78v-16.95h-2.78v16.95ZM569.49,17.76h-16.9v17.81h2.78v-14.66h14.37c3.84,0,5.76,2.45,5.76,7.34v7.32h2.78v-6.53c0-7.52-2.93-11.28-8.79-11.28ZM552.59,58.4h2.78v-16.95h-2.78v16.95Z"/>
    </g>
  </g>
</svg>