<?xml version="1.0" encoding="UTF-8"?>
<svg id="Layer_2" data-name="Layer 2" xmlns="http://www.w3.org/2000/svg" viewBox="-41.89 -44.67 279.29 297.77">
  <defs>
    <style>
      .cls-1 {
        fill: #e1e9ff;
      }
    </style>
  </defs>
  <g id="Layer_4" data-name="Layer 4">
    <g id="ICON">
      <path class="cls-1" d="M97.75,34.72c-23.98,0-47.38-2.09-67.42-5.96C47.87,10.94,71.61,0,97.75,0s49.88,10.94,67.42,28.76c-20.04,3.87-43.44,5.96-67.42,5.96Z"/>
      <path class="cls-1" d="M189.99,69.67c-26.3,6.74-58.51,10.4-92.24,10.4s-65.94-3.66-92.24-10.4C1.94,80.48,0,92.11,0,104.22c0,57.56,43.77,104.22,97.75,104.22s97.75-46.66,97.75-104.22c0-12.11-1.94-23.74-5.51-34.55ZM46.67,125.16c0,6.26-5.08,11.34-11.35,11.34h-7.62c-6.27,0-11.35-5.08-11.35-11.34v-6.66c0-6.26,5.08-11.34,11.35-11.34h7.62c6.27,0,11.35,5.08,11.35,11.34v6.66ZM179.15,125.16c0,6.26-5.08,11.34-11.34,11.34h-7.63c-6.27,0-11.35-5.08-11.35-11.34v-6.66c0-6.26,5.08-11.34,11.35-11.34h7.63c6.26,0,11.34,5.08,11.34,11.34v6.66Z"/>
    </g>
  </g>
</svg>